<?xml version="1.0" encoding="utf-8"?>
<!-- Generator: Adobe Illustrator 20.1.0, SVG Export Plug-In . SVG Version: 6.00 Build 0)  -->
<svg version="1.1" id="Слой_1" xmlns="http://www.w3.org/2000/svg" xmlns:xlink="http://www.w3.org/1999/xlink" x="0px" y="0px"
	 viewBox="0 0 595.3 841.9" style="enable-background:new 0 0 595.3 841.9;" xml:space="preserve">
<style type="text/css">
	.st0{fill:#121212;}
	.st1{fill:#7E7E7E;}
</style>
<g>
	<path class="st0" d="M-14242.3,2148c0-1090.2,0-2180.5,0-3270.7c106.3-31.8,101.2-122.2,105.9-205.4
		c62.9-1102.1,356.1-2160.9,736.1-3180.1c1002.5-2688.9,2615.7-4942.8,4934.6-6672.5c1940.8-1447.7,4116.3-2323.1,6486.4-2754.5
		c150.9-27.5,347.4,65.9,456.6-125.1c1211.4,0,2422.8,0,3634.2,0c350.4,208.8,757.3,154.3,1133.2,243.4
		c1483.6,351.5,2894.3,880.1,4222.2,1643.3c1830.8,1052.2,3341.4,2452.2,4590.5,4138c719.4,971,1281.5,2032.7,1724.5,3163.6
		c410.6,1048.2,648.3,2132.7,850.6,3232.3c62.9,342.1-9.3,712.1,198.6,1025.8c0,702.6,0,1405.2,0,2107.8c-74,7-102,56.6-104.9,121.9
		c-45.6,1049.7-284.5,2060.8-571.3,3067.7c-322.7,1132.9-800,2205.2-1407.8,3195.4c-1312.8,2138.9-3042.7,3878-5231.9,5149.2
		c-1722.6,1000.2-3569.6,1597.4-5535,1857.5c-128,35.9-318.3-112.5-377.4,127.5c-872.2,0-1744.4,0-2616.6,0
		c-53.9-255.8-252.8-82.3-377.8-127.7c-1326.5-187.8-2617.4-490.5-3867.6-997.6c-1713.8-695.2-3218-1700.1-4543.8-2966
		c-1401.9-1338.6-2505.2-2902.2-3259.4-4697.1c-462.2-1099.9-857.4-2218.6-990.2-3418.5
		C-14076.4,2592.4-14040.5,2325.4-14242.3,2148z M-6990.1,269.7c-26.1,82.6,12.9,95.1,81.5,75.9l-16.1,3.6
		c324.8,278.7,775.1,208.3,1035.3-98.9c118.5,58.6,232.1,133.2,356.7,172.3c228.3,71.5,519,56.5,682.4,196
		c261.8,223.6,544.8,310.8,860.2,362.8c685.6,305.2,1371.1,610.4,2056.7,915.6c-125.1-245.3-372-255.6-547-392.8
		c4.6-63.6,45.9-95.4,100.5-115.5c125.1,54.2,236.4,150.1,405.6,145c-90.7-131.8-199.6-201.4-315.2-264.6
		C-2912.1,928.9-3560.7,640.6-4224,396.1C-4770.6,194.5-5290.6-90.2-5897-133.4c-236.7-16.9-256.7,80.4-287.8,237.6
		c-146.7,31.6-293.5,63.1-440.2,94.7c-100.6-63-214.8-121.8-200.1-264.7c13.3-128.9-63-126.9-151.5-130.8
		c-113.5-4.9-183.8,40.1-193.5,155.4c-11.6,136.8,13.4,259.1,161.3,316.6L-6990.1,269.7z M-1023.3-4054.3
		c-217.6-19.8-481-129.3-493.6,252.1c-143.3,59.9-220.9-148.3-364-89.4c66.6-446.2,402-721.4,665.8-1041
		c160.5-194.4,235.6-766.4,118.1-972.1c-25.3-44.2-56.9-86.2-110.3-67.2c-279.8,99.4-621.5,134.5-823.2,320.4
		c-402.6,371.2-811.9,730.6-1249.7,1057.1c-155.1,115.7-214.9,199.4-126.1,411.7c156.6,374.9,262.2,772.8,367.6,1166.8
		c101,377.6,156.3,406.2,496.1,213.4c102.4-58.1,120.1-132.5,125.6-235.5c6.7-125.7-31.4-270.6,110-356.7
		c79.6,135.1,38.2,283.3,41.1,425.3c4.7,228.4-24.3,459.5,123.8,661.8c64.3,87.8,104.9,189.3,252.3,130.1
		c142.3-57.2,231.1-143.3,196.6-298.2c-25.9-115.9-76.6-228.2-129.6-335.5c-103.8-210.1-67-413.5,19.1-725.8
		c-42.8,720.9,252.8,412.8,491.1,290.7c72.4-37.1,160.1-50.9,242.4-59.9c93.4-10.2,241,18.6,232.3-100.8
		c-10.1-140-163.2-99.1-266.2-92.8c-231.4,14.1-427.1-15.2-424.3-314.9c86.2-4.7,140.9,42.7,211.6,89.2
		c139.2,91.6,317.8,191.4,421.3-63.3c130.9-63.1,84.3,154.1,194.5,125.5c58.4-207.9-77.9-389.8-71.2-588.5
		c1.8-53.4-1.7-94.3-62.2-101.3c-62.6-7.2-119.7,11.6-152.4,67.9C-1028-4214.3-940.9-4120.7-1023.3-4054.3z M1389.2-8678.4
		c219-99.2,248.6,65.8,270.3,207.9c43.6,284.8,263.3,162.9,396.8,156.8c303.7-14,185.7-276,211.1-444
		c20.4-134.4,12.6-244.7-186.4-272.5c-274.5-38.4-483.3,73.1-696.9,203.4c-5.3-60.2-7.7-120.8-16.5-180.5
		c-19.7-134.5-72.8-321.4-202.1-292.9c-185.9,40.9-60.4,222.4-31.4,330.5c128,478.2,205.9,953.9,132.6,1453.8
		c-41.1,280.2-213.7,519.8-237.1,817.6C1505.3-6902.3,1674.1-7895.4,1389.2-8678.4z M875-7734.3C667-7708,677.1-7918.2,581.9-8012.6
		c-89-88.2-167.7-156.1-303.7-153.2c-190.3,4-78.3,189.7-173.4,261.8c-134-406.2-430.7-213.4-682-192.9
		c-9.5-231,179.2-268.2,319.2-247.1c372.4,56.1,746.9-16.4,1111.9,35.2c251.2,35.5,258.2-58.9,193.8-225.1
		c-74.9-193.4-115.4-388.9-150.2-593c-49.6-290.4,83.9-382.5,329.9-380.7c289.1,2.2,578.5,17.4,867,38.2
		c176.9,12.8,257.5-61.5,225.3-229.2c-86.2-448.6,220.3-982-305.8-1340.8c-133.1-90.8-17.8-315.9-118.7-477.7
		c-63,127.9-109.4,224-157.4,319.3c-54.4,108-102,220.5-167.1,321.8c-212.1,329.9-383.1,319.8-557.9-26.7
		c-32.5-64.4-66.9-128-104.9-200.6c-63.3,177.7-123.9,335.6-175.5,496.4c-46.1,143.4-113,318.8-255.6,320.6
		c-158.4,2.1-257.6-154.6-284.9-325.4c-7.5-46.9-24.4-90.9-90-93.4c-88.6,166.6-176.3,337.2-269.7,504.6
		c-47.1,84.4-102.7,186.4-204.4,189c-132.1,3.5-140.8-144.6-206.4-224c-117.3-141.7,5-352.3-122.5-504.2
		c-164.7,159.3-288.1,356.6-463.5,430.6c-291.5,122.8-155.2-347.6-407.9-341.8c-131.3,184.3-105.9,432.4-208.4,636.1
		c-156.7,311.4-256.9,305.9-483.9,46.3c-132.1-151-109.7-356-236.8-527.1c-56.3,80.3-100,137.5-138.4,198
		c-196.5,309.5-247,296.9-458.6-1c-106.6-150.1-53.5-352.8-194.6-484.7c-210.3,146.8-301.9,411.4-578.5,513.4
		c58.6-312.2-263.6-489.9-175.3-792.7c-212.6,181.4-384.8,380.9-600.3,533.5c-116.7,82.6-218,124.8-295.7-26.2
		c-103.9-202-172.2-180.6-286.8,1.1c-134.3,213.1-293.5,348.4-431.6-18.2c-63.8-169.5-167-227.3-288.1-20
		c-90.5,154.8-207.9,293.9-313.3,440c-339.1,51.7-269-326.7-474.5-439.6c-125.5,237.3-249.9,479.5-381,718
		c-73.6,133.9-118.8,357-279.1,342.4c-172.6-15.7-212.4-234.1-260.2-396.3c-4.4-14.8-35.2-21.8-57-34.3
		c-62.7,144.3-182.2,243.2-189.6,436.7c-8.3,216.4-128.8,517.3-318.9,554.5c-132.5,25.9-171.9-315.3-218.3-507.1
		c-8.5-35.1-22.8-69-29.8-104.3c-38.2-191.9-121.9-197.2-268.9-86.1c-617.2,466.5-1104,1061.2-1583.4,1654
		c-1027.7,1270.8-1792.2,2693.2-2296.5,4249.7c-166.5,514-331,1032-442.4,1559.5c-83.9,397.5-73.5,816.1-123.7,1220
		c-180.4,1452.2-110.4,2888.2,227.7,4306.4c210.7,883.9,408.2,1770.9,842.1,2592.4c353.7,669.8,617.4,1381.4,1086.8,1994.8
		c580.9,759,1071.4,1581.6,1834.8,2197.6c548.1,442.2,1014.2,970.8,1613.5,1372.1c1023.4,685.2,2105.2,1234.8,3245.2,1679.9
		c358.4,139.9,735.6,233,1107.2,336.7c101.1,28.2,204.1,29.8,275.3-100.4c76.4-139.5-0.5-195.6-88.3-265.9
		c-333-266.4-528.5-619.1-655.2-1020.4c-37.2-117.7-95.3-271.4-226.5-286.1c-145.8-16.3-158.5,153.6-216.1,255.6
		c-227.2,402.3-654,528.8-1057.3,314.5c-115.3-61.3-196.2-160.8-162.7-292.6c34.5-136.1,147.4-75.8,240.9-63
		c207.3,28.4,410.9,20.7,595-99.1c265.9-173,289.9-381.1,58.4-557.5c-85.1-64.8-118.3-154.3-134.6-248.8
		c-76.9-445.6-119.9-904.7-125.9-1346.9c-18.6-1361.9-113.2-2732,157.2-4084c30.2-151.1-30.9-285-138.4-338.1
		c-501.7-247.7-855.1-667.1-1225.4-1056.3C-6948.8,3238.1-7606.6,2005.2-7562.9,479.9c3.2-110,4.3-220.1-85.2-303.6
		c-223.2-208.3-226.1-492.5-252.9-763.6c-12.1-122.4-29.6-236-82-348.3c-495.6-1063.3-909.7-2153.2-1156.9-3306.2
		c-108.8-507.6-132.7-1023.3-50.8-1512.5c92.8-553.9,322.7-1085.4,920-1342.8c319.6-137.7,571.5-394.4,907.7-528.8
		c193.3-77.2,330.9-299.8,294.2-596.1c-137.3-1107.4,30.3-1458.9,869.8-1864.4c159-123.2,323.5,3.8,486.7-9.5
		c979.7-79.3,1270.5,124.2,1559,1069.9c-113.5-29-225.5-68.2-340.8-83.9c-105.3-14.3-214.1-3-350.4-3
		c247.6,241.7,557.5,266.8,687.8,83.9c287.4-35.4,423.2,226.2,636.6,335.6c265.7,136.3,249.6,322,2.4,494.3
		c-183.4,127.7-407.5,130-595,193.1c-52.4,147.4,181.5,348.2-12.4,395.5c-358.8,87.6-287.3,365.7-293.5,569.1
		c-10.2,335.4-178.6,435.7-465.8,476.3c-151.5,21.4-322.4-40.8-514,84.7c301.9,57.2,546.2,78.1,761,250
		c134.4,107.6,332.1,68.7,516.6-1.8c459.7-175.6,928.3-329.4,1398.3-476c640.7-199.8,1235.5-456.3,1603.8-1068
		c43.6-72.5,116.3-256.7,271.1-92.9c-139.5,157.9-52.1,153.4,92.6,145.2c552.1-31.6,553.4-27.8,616.8,519.6
		c8.8,75.7,59.8,98.4,116.8,111.1c142,31.7,221.3-72.3,301.2-158.1c39.6-42.4,61.8-107-40.7-121.9c-81.6-11.8-207.5-63.6-63.1-122.7
		c86.1-35.2,129.6-310.6,285.2-100.6c117.8,159.1,273.1,283.2,448.8,194.2c193.7-98.2-167.5-204.2-43.9-340.7
		c72.1-45.3,144.1,145,197.9,15.3c59.2-142.7,3.3-280.7-110.6-387.5c-63.8-59.8-146.8-111-225.6-63.7
		c-121.4,72.9,6.7,136.7,29.3,202.8C786.4-7891.1,911.9-7852.4,875-7734.3z M-5788.8-346.2c252.5,8.7,507.6-2.6,757.1,29.2
		c1832,233.3,3662.9,475.2,5493.9,716.2l-22,1.8l18.3,12c-41.5,109.4-164.2,119.8-192,52.3C140.3,159.5-150.9,228.9-366.3,191.9
		c-975.1-167.9-1953.6-323-2935.9-439.5c-784.1-93-1567.3-228.1-2362.7-196.9c-376.1-167.4-757.6-79.2-1137.3-76.9
		c-1.7,29.5-3.5,58.9-5.2,88.4C-6467.9-404.1-6128.3-375.1-5788.8-346.2z M5961.3-10646.3c-740.2-16.9-805.1,48.5-718.4,722.3
		c21.4,166,33.4,333.6,63.3,498c28.8,158.1,54.7,323.5,171.6,417.1c487-363.9,949.5-709.5,1478.4-1104.7
		c-280.1,17.3-467.9,37.5-655.9,38.9c-631.3,4.8-631.3,2.3-336.2-569.1c9.7-5,21.2-8.3,28.2-15.7c3.5-3.7-1.2-15.1-2.2-23
		C5980.6-10670.4,5971-10658.3,5961.3-10646.3z M-5058.8-3903.6c-4.1,1.5-8.2,3-12.3,4.4c5.3,4.4,10.5,8.8,15.8,13.2
		c-506.2-563.7-565.9-1156.3-129.1-1791.3c61-88.7,233.1-164.2,140.3-293.1c-76.3-106-234.1-103.2-369.8-96.3
		c-412,21.1-874.8,535.5-920.2,1068.3c-30.9,362.6-98.5,756.7,321.4,996.7c64.1-98.7-95.4-154-51.7-238.5
		c176.1-55.1,188.6,208.2,370.2,170.1c-42.5-181.5-223.9-351-50.2-560.7C-5517.5-4371.6-5498.9-3932.6-5058.8-3903.6z
		 M10113.7-5452.6c-402.7-156.4-746.2,311-1141.1,32.8c-78.5-55.3-138.9,71.1-201.8,120.8c-549.4,433.5-1043.7,933.8-1618.9,1336.7
		c-87.8,61.5-143.1,147.3-164.9,267.9c-288.7,1596.3-583.5,3191.6-881.3,4786.3c-37.1,198.7-65.1,358.8,151.2,500.3
		c184.3,120.6,117.8,430.6-112.2,476.4c-215.2,42.9-233.7,160.5-261.5,318.5c-158.3,901.8-323.1,1802.4-478.7,2704.6
		c-179.3,1039.2-430.9,2063.9-595.7,3106.6c-234.8,1485.7-505,2965.8-760.3,4448.3c-42.1,244.5-244.7,551.1-57.2,718.8
		c193.7,173.3,471.8-70.6,704.6-151.5c1266.3-439.8,2466.6-1029.4,3530.3-1838.6c917.4-698,1846.5-1400,2514.9-2377.8
		c279.4-408.8,627.2-766.7,883.6-1200.4c381.3-644.9,748.3-1297.9,1047.8-1981.3c524.8-1197.5,881.5-2445.2,1016.6-3754.5
		c101.9-987.4,160.9-1975.3,47.8-2960.8c-36.8-320.5,18.6-682.5-137.1-956.8c-183.3-323-617.8-169.7-910.5-317.2
		c-104.8-52.8-279.1-5.1-311.8-143.6c-34.9-147.9,103.6-227.4,213-305.8c22.6-16.2,25.9-59.2,43.8-104.1
		c-187.8-21.3-370.6-81.5-536.6-50.7c-206.1,38.2-387.7,0.2-486.8-148.6c-101.8-152.9,62.4-280.5,158.8-400.5
		c16.9-21,10.9-60.4,16-95.2c-739.3,127.3-844.7,136-910.1,37.9c-151.4-227.1,105.5-365.7,142.8-583.4c-240.3,0-467-4-693.6,1.1
		c-231.2,5.2-233.1-103.1-154.7-274.4c92-201.1,340.9-268.2,419.9-484.1C9903-4968.9,9903-4968.9,10113.7-5452.6z M-5166.2,4045.2
		c247.4,284.5,391.1,647,749.9,744.8c393,107.2,402.1,345.8,317,655.1c-121.1,440.2-1.1,892.3-139.7,1395.9
		c641.3-422.8,1240.8-618.9,1919.5-411.8c99.8,30.4,206.3,13.3,200.1-127.9c-26.7-602.4,74.8-1210.4-67.5-1807.4
		c-230.1-965.8-752.9-1794.8-1244-2638.3c-66-113.4-133.6-127.9-261.9-70.6c-416.3,186.2-841.8,344.8-1201.4,643.8
		c-471.6,392.2-504.7,475.7-176,982.6c182.7,281.7,400.7,540.5,646,867.1C-4701.3,4175.8-4875.9,3994.2-5166.2,4045.2z
		 M-226.1,6355.6c152.2-516.8,305.2-1033.4,456.6-1550.4C586,3591.1,746.5,2331.9,1084.4,1113.9c62.1-224-40.9-304.4-245.8-338.8
		C494.9,717.4,155.4,634.7-188.4,578.3c-706.3-115.9-1414.2-221.5-2132-332.9c-3.8,171.5,77,265.5,156.5,349.2
		c352.8,371.5,565.5,799.6,604.1,1318.3c20.1,270.3,4.5,558.7,203.1,786.7c382.5,439.1,497.6,1004.1,673.7,1529
		C-454,4911-385.1,5636.4-226.1,6355.6z M1890.2,1922.7c-476.4,220.5-564.5,578.5-668,1010.7
		C785.1,4759.3,360.5,6588.4-200.9,8384.9c-491.9,1574.2-1029.5,3132.3-1540.4,4699.5c-236.1,724.3-162.3,831.6,637.3,820.8
		c166.3-2.2,250.8-47,279.8-200.5c203.9-1078,574.5-2112.1,832.3-3176.1c495.7-2045.9,1074.3-4072.1,1478.8-6139.5
		C1644.1,3585.2,1752.9,2771.7,1890.2,1922.7z M1821.7-3243.2c-129.3,67.5-203.1,102.8-274,143.5
		C920.8-2740.1,292.9-2382.2-331.6-2018.4c-318.2,185.3-636.5,371.9-1011.9,169.9c-239.5-128.9-377.1-2.4-520.7,160
		c-284,321.4-578.2,633.9-858.7,958.3c-79.9,92.4-239.4,166.9-166.2,329.5c76.7,170.4,212-11.6,317.5,34.1
		c64.9,28.1,139.4,37,210.6,47.1C-1267.3-164-168.9-37.7,907.4,223.3c247.6,60,374.7-19.8,401.1-302.3
		c34.5-368.9,120.5-733.1,188.2-1098.6C1620.5-1845.5,1639-2527.8,1821.7-3243.2z M2200-5131.3c421.6-74,653-386.2,957.7-584.8
		c1441.5-939.6,2879-1885.3,4318.7-2827.7c294.5-192.8,485-452.7,563.7-799.9c47.4-209.1,6.5-385.3-148.1-527.3
		c-158.9-146-333.8-143-535.4-66.7c-280,106-484.1,312.6-718.1,479.9C5170.3-8408.4,3704.8-7354.8,2231-6313
		c-150.1,106.1-219.9,214.3-189.8,383.4C2088.9-5660.9,2147.2-5393.9,2200-5131.3z M-6051.7-6102
		c-239.3-314.3-579.7-507.9-876.9-752.1c-284.6-233.8-600.1-336.8-937-162.1c-392.3,203.5-639,506-659.6,992.4
		c-32.4,764,390.2,1241,959.5,1619.7c403.5,268.4,655.4,309.3,896.3,253.5c-126.9-175.2-406.2-216.7-439-471.9
		c153-55.5,221.6,133,355.1,60.5c-68.3-192.7-354.6-221.9-352.3-466c473.1,122.8,489.8,126.3,605.7-359.3
		C-6429-5684.3-6272.3-5906.6-6051.7-6102z M-2277.5,8522.8c-415.5,343.7-817.8,677.6-1221.6,1009.7
		c-71.4,58.7-155.6,169.9-243.6,88.6c-80.2-74.1-49.8-194.1,15.7-297.6c78.8-124.4,173.1-226.1,285.8-321.9
		c366.5-311.6,717.8-641.1,1085-951.8c198-167.5,121.9-381.6,115.9-574.4c-6.4-203.3-212-114.6-316.1-134.8
		c-578.3-112.6-1087.5,94.8-1576.8,381.7c-130.6,76.6-144.3,178.7-137.9,304.3c20.8,408.9,5.2,823.5,70.6,1225.1
		c67.4,413.8,17.1,859.6,273.4,1244c176.2-149.6,340.6-306.8,522.9-439.1c184.2-133.7,379.4-256.2,581.8-360.2
		C-2213,9383.5-2159.2,9281.5-2277.5,8522.8z M-4840.3-4230.6c237.7,168.8,611.1,83.6,890.8-199.8
		c413.9-419.5,883.5-766.5,1353.7-1118.4c282.3-211.3,579.1-453.2,481.2-905.3c-34.2-157.7-39.8-209.7-210.8-151.2
		c-738.4,252.3-1489,471.3-2218.5,746.6c-418.6,157.9-681.6,489.4-680.9,968.9c0.5,350.4,110.2,421.6,446.6,313.3
		c206.8-66.5,396.4-214.9,714.6-142.1C-4349.3-4522.9-4557.3-4335-4840.3-4230.6z M1546.1-4552.8c17.8-512.2-174.3-955-213.7-1421
		c-21.5-253.3-124.2-233.6-298-118.5c-270,178.8-546.8,349-830.5,504.9C61.9-5509.4,28-5426.1,58.2-5269
		c74.2,386.2,141.5,775,184,1165.8c65.8,605.3,137.4,665.1,644.7,374.6C1215.7-3917,1656.7-4051.8,1546.1-4552.8z M-1014.3-6440.8
		c49,519.6,222.1,1182.9,347,1853.8c81.1,435.6,165.5,875.2,352.7,1282.8c49.9,108.6,129.6,222.4,274,156.4
		c127.4-58.3,140.9-166.2,97.5-304.8C-198-4266.2-401-5094.9-534.6-5935.5c-70.3-442.5-231.5-941.8,269.2-1280.6
		c75-50.7,71.2-121.8,38.5-191.5c-39.8-85-98-106-202.5-93.3C-866-7448.1-1014.3-7230.7-1014.3-6440.8z M-1961.7,10353.1
		c-337.3,212.1-757.4,370.1-1046.2,163.9c-300.1-214.3-316.8-1.7-411.7,121.4c-93.7,121.5-151.9,270.3-230.4,415.7
		c413.4,134.6,834.6,142.5,1237,239.6c180.4,43.5,241.6-38.9,293-168.8c175.5-443.6,473.1-808.2,753.2-1185.3
		c104.4-140.7,280.8-233,312.3-510.8c-555.2,197.3-1020.3,519.5-1559.9,636.6C-2461.7,10365.8-2188.1,10280.1-1961.7,10353.1z
		 M-4711.5-7789.3c10.6-172.8,286.8-87.5,217.8-294.7c-26-78.2-80.4-118.5-165-101.1c-290.2,59.7-492.8-88-672.8-317.1
		c-45.4,155.8-69.4,284.3-120.5,400.9c-52.5,119.9-130.3,228.9-199.3,341.3c-206.4,336.3-155.7,568.9,205.1,732
		c168.5,76.1,334.4,167.4,537.6,186.6c392.3,37,390.1,44.1,281.7-354.1c-19.4-71.2-206.5-183.1-7.4-292.9
		C-4312.4-7665.7-4599-7709.6-4711.5-7789.3z M-3744.6-3266.2c-47.2,654.8-103.2,1302.7-256.7,1941.2
		c-123.2,512.3-105.6,515.2,416,582.4c108.8,14,190,14.4,192.4-131.3C-3379.7-1690.1-3457.2-2492.1-3744.6-3266.2z M-6293.7-8797.6
		c124.2,48.8,91.9,143.6,104.5,223.3c38,240.3,39.6,239.3,292.6,222.3c88.7-5.9,100.4,65,85.1,119
		c-18.9,66.9-59.1,131.2-102.7,186.7c-50.2,64-85.8,137.8-19.5,190.4c111,88.2,136.6-47,182.2-99.1
		c160.9-183.5,196.9-399.7,152.7-636.9c-55.5-297.9-178-517.9-522.5-542.1c-314.2-22.1-426.8,184.9-493.9,426.4
		c-109.6,394-8.8,678.3,286.1,829.5C-6436.6-8198.2-6462.1-8503-6293.7-8797.6z M-1350-2318.4c85.9,122.3,157.9,136.6,285.2,73.4
		c895.6-445,1797.3-877.8,2696.8-1315.1c257.1-125,298.9-336.2,222.6-606.3c-106,329-384.7,446.6-652.8,579.4
		C358.9-3169.8-482.7-2749.9-1350-2318.4z M-6484.2,2859.5c515.8-748,1111.4-1391.8,2065-1757.2
		c-638.6-77.5-1710.3,555.6-1983.9,1100.8C-6500.9,2398.1-6726.7,2589.9-6484.2,2859.5z M-3833.7,1378.9
		c-266.6-87.9-271.4-98.1-362.1-55.8c-806.3,375.7-1509,887.3-2068.4,1586.1c-112.2,140.1-59.4,258.1,59.8,338.1
		c168.2,112.9,156.8-73.8,197-148.1c357.8-660.7,893.3-1125.4,1574.7-1424.2C-4235.9,1588.8-4021.4,1542.3-3833.7,1378.9z
		 M2545.5-6911.2c144.6-17.7,240.7-29.7,272.8-147c179.5-654.9,270.8-1313.4,92.9-1985.3c-25.4-96-51.6-216.4-161.4-210.7
		c-429.2,22-856.4-147.9-1287.9-6c263.4,57.4,529,81.7,795,100c462.1,31.8,537.3,130.3,569.4,602.1
		C2864.5-7996.9,2732.6-7469.8,2545.5-6911.2z M-5483.6-9989.1c-306.8,4.1-575.6,224.9-529.9,500.4
		c45.4,273.8,303,336.9,544.5,310.1c229.5-25.5,549.1,59.1,605.4-294.4C-4822.8-9729.2-5163.6-9993.4-5483.6-9989.1z M-6064,1292.4
		c-206.6-28.2-357.8,243.3-395.3,83.6c-95.7-407.5-608.2-233.4-689.2-609.7c56.7,533.2,133.1,1037.6,392.1,1533.3
		C-6512.9,1945.4-6299.4,1634.8-6064,1292.4z M-3300.3,12394.4c241.7-313.8,603.1-443.2,933.2-715.5
		c-480.9-81-894-150.7-1330.8-224.3C-3601.6,11794.7-3543.9,12111-3300.3,12394.4z M-6053.6-6613.2c73.8-97.5,147.3-204,139.7-322.9
		c-32.7-514.1-588.8-583-817.8-963.4c-96.1,143.2-281.4,228.2-90.5,427.9C-6558-7195.2-6310.9-6902.2-6053.6-6613.2z M2242-7483.4
		c-40.2-144.8,88.8-359.6-201.2-380.6c-299.1-21.7-425.5,132.7-453.2,654.1c-16.2,305.9,234.4,142.9,360,160.1
		C2319.4-6998.9,2200.9-7299.6,2242-7483.4z M-4222.1,7466c537.6-532.7,1183.6-571.6,1856.3-502.9c61.7,6.3,145.3,98.5,175.6-11.8
		c29.4-107-80.9-145.5-159-151.6c-626.9-49.3-1249.3-67.9-1787.8,347.7C-4228.7,7218.2-4305.5,7282.9-4222.1,7466z M-1137.4-3160
		c-132.7-50.4-221.8,80.4-323,182c-68.2,68.5-150.7,146.3-81.9,249.1c94,140.5,157.5-13.6,234.3-39.2
		c91.2-30.4,180.3-70.6,273.7-89.6c106.7-21.7,245.3-16.9,230.1-165.6C-821.9-3196.2-980.3-3143.2-1137.4-3160z M-2546.9,12077.5
		c-264.3,128.2-404.1,285-540.7,440.9c-122.4,139.6,11.4,221,98.8,285.6c112.1,82.8,166.2-5.7,203.4-104.7
		C-2715.9,12514.4-2644.1,12330.4-2546.9,12077.5z M-4524.8-8425.6c-88.5,88.6-158.7,189.9-277.9,89.4
		c-71.6-60.3-99.2-129.8,0.9-203c87.2-63.8,3.2-106.9-40.1-116.7c-78.7-17.8-167.1-27.8-243.9-9.6c-80,18.9-48.2,89.4-23.1,144.7
		C-4970.3-8214.8-4747.8-8355-4524.8-8425.6z M1672.8,640.2c-338.7-140.4-684.4-241.1-1056.1-202
		C946.9,611.8,1317.1,596.1,1672.8,640.2z M-6326.6-9344.5c101.1-208.9,202.2-417.7,303.3-626.6
		C-6261.4-9837.8-6383.7-9642-6326.6-9344.5z M2053.4,670.5c-40,12.9-69.7,30.2-97.5,27.6c-11.2-1.1-71.8,35.3-49-23.7
		c8.5-22,56.7-32.2,88.8-39.6C2007.7,631.9,2025.2,652.2,2053.4,670.5z"/>
	<path class="st1" d="M10113.7-5452.6c-210.7,483.7-210.7,483.7,476.6,727.7c-79,215.9-328,283-419.9,484.1
		c-78.4,171.3-76.5,279.7,154.7,274.4c226.6-5.1,453.3-1.1,693.6-1.1c-37.3,217.7-294.2,356.3-142.8,583.4
		c65.3,98,170.7,89.4,910.1-37.9c-5.1,34.8,0.9,74.2-16,95.2c-96.5,120-260.7,247.6-158.8,400.5c99.1,148.8,280.7,186.8,486.8,148.6
		c165.9-30.8,348.7,29.5,536.6,50.7c-17.9,44.9-21.2,87.9-43.8,104.1c-109.4,78.4-247.9,157.9-213,305.8
		c32.7,138.4,207,90.8,311.8,143.6c292.7,147.4,727.2-5.8,910.5,317.2c155.7,274.3,100.3,636.4,137.1,956.8
		c113.1,985.5,54.2,1973.3-47.8,2960.8c-135.1,1309.3-491.8,2557-1016.6,3754.5C12373.1,6499,12006,7152.1,11624.7,7797
		c-256.4,433.7-604.2,791.7-883.6,1200.4c-668.4,977.8-1597.5,1679.8-2514.9,2377.8c-1063.7,809.2-2264,1398.8-3530.3,1838.6
		c-232.8,80.9-510.9,324.8-704.6,151.5c-187.5-167.8,15.1-474.3,57.2-718.8c255.4-1482.5,525.5-2962.6,760.3-4448.3
		c164.8-1042.7,416.4-2067.4,595.7-3106.6c155.7-902.2,320.4-1802.8,478.7-2704.6c27.7-158,46.3-275.6,261.5-318.5
		c230-45.8,296.5-355.8,112.2-476.4c-216.3-141.5-188.3-301.6-151.2-500.3c297.8-1594.7,592.6-3189.9,881.3-4786.3
		c21.8-120.5,77.1-206.4,164.9-267.9c575.3-402.9,1069.5-903.1,1618.9-1336.7c62.9-49.6,123.3-176.1,201.8-120.8
		C9367.5-5141.6,9711.1-5609,10113.7-5452.6z"/>
	<path class="st1" d="M-6198.5-10086.3c-839.9,405.3-1007.5,756.8-870.2,1864.2c36.7,296.3-101,518.9-294.2,596.1
		c-336.3,134.3-588.1,391.1-907.7,528.8c-597.3,257.4-827.2,788.9-920,1342.8c-81.9,489.2-58.1,1004.9,50.8,1512.5
		c247.2,1153,661.3,2242.8,1156.9,3306.2c52.4,112.4,69.9,226,82,348.3c26.8,271.1,29.7,555.3,252.9,763.6
		c89.5,83.5,88.3,193.6,85.2,303.6c-43.8,1525.3,614,2758.2,1630.1,3825.9c370.3,389.1,723.7,808.6,1225.4,1056.3
		c107.6,53.1,168.7,186.9,138.4,338.1c-270.4,1352-175.7,2722.2-157.2,4084c6,442.2,49,901.3,125.9,1346.9
		c16.3,94.5,49.6,184,134.6,248.8c231.4,176.4,207.5,384.5-58.4,557.5c-184.1,119.8-387.7,127.5-595,99.1
		c-93.5-12.8-206.4-73-240.9,63c-33.5,131.8,47.4,231.3,162.7,292.6c403.3,214.3,830.1,87.8,1057.3-314.5
		c57.6-102,70.4-272,216.1-255.6c131.2,14.7,189.4,168.4,226.5,286.1c126.7,401.3,322.2,754,655.2,1020.4
		c87.8,70.2,164.6,126.4,88.3,265.9c-71.3,130.2-174.2,128.6-275.3,100.4c-371.6-103.7-748.8-196.8-1107.2-336.7
		c-1140-445.1-2221.8-994.6-3245.2-1679.9c-599.3-401.3-1065.4-929.9-1613.5-1372.1c-763.4-616-1253.9-1438.5-1834.8-2197.6
		c-469.5-613.4-733.1-1325-1086.8-1994.8c-433.8-821.4-631.4-1708.5-842.1-2592.4c-338.1-1418.2-408.1-2854.2-227.7-4306.4
		c50.2-403.9,39.7-822.5,123.7-1220c111.4-527.6,275.9-1045.5,442.4-1559.5c504.2-1556.6,1268.7-2978.9,2296.5-4249.7
		c479.4-592.8,966.3-1187.6,1583.4-1654c147-111.1,230.7-105.8,268.9,86.1c7,35.3,21.3,69.2,29.8,104.3
		c46.4,191.7,85.8,533,218.3,507.1c190.1-37.2,310.5-338.1,318.9-554.5c7.4-193.5,127-292.4,189.6-436.7
		c21.8,12.5,52.6,19.5,57,34.3c47.7,162.2,87.6,380.6,260.2,396.3c160.3,14.6,205.5-208.5,279.1-342.4
		c131.1-238.5,255.6-480.7,381-718c205.5,112.9,135.4,491.3,474.5,439.7C-6241.4-10130.3-6220-10108.3-6198.5-10086.3z"/>
	<path class="st1" d="M-847.4-7869.1c-154.8-163.7-227.5,20.5-271.1,92.9c-368.2,611.7-963,868.2-1603.8,1068
		c-470,146.6-938.6,300.4-1398.3,476c-184.5,70.5-382.2,109.3-516.6,1.8c-214.8-171.9-459-192.9-761-250
		c191.6-125.5,362.5-63.3,514-84.7c287.2-40.6,455.6-140.9,465.8-476.3c6.2-203.4-65.3-481.6,293.5-569.1
		c193.9-47.3-40-248.1,12.4-395.5c187.6-63.1,411.7-65.3,595-193.1c247.2-172.2,263.3-358-2.4-494.3
		c-213.4-109.4-349.2-371-636.6-335.6l3.2,3.1c-288.4-945.8-579.2-1149.3-1558.9-1070c-163.2,13.2-327.7-113.8-486.5,9.5
		c-21.3-21.9-42.8-43.9-64.3-65.9c105.4-146.1,222.9-285.2,313.3-440c121.1-207.3,224.3-149.4,288.1,20
		c138,366.6,297.2,231.3,431.6,18.2c114.6-181.7,182.9-203.1,286.8-1.1c77.7,151,179,108.8,295.7,26.2
		c215.5-152.6,387.8-352.1,600.3-533.5c-88.3,302.8,233.9,480.5,175.3,792.7c276.5-102,368.2-366.6,578.5-513.4
		c141,131.9,87.9,334.6,194.6,484.7c211.6,297.8,262,310.4,458.6,1c38.4-60.5,82.1-117.7,138.4-198
		c127,171.1,104.7,376.1,236.8,527.1c227,259.6,327.2,265.1,483.9-46.3c102.5-203.6,77.1-451.8,208.4-636.1
		c252.7-5.8,116.3,464.7,407.9,341.8c175.4-73.9,298.7-271.3,463.5-430.6c127.6,151.9,5.2,362.5,122.5,504.2
		c65.7,79.4,74.3,227.4,206.4,224c101.6-2.7,157.3-104.6,204.4-189c93.4-167.4,181.1-338.1,269.7-504.6c65.7,2.5,82.5,46.5,90,93.4
		c27.3,170.8,126.4,327.5,284.9,325.4c142.6-1.9,209.5-177.2,255.6-320.6c51.7-160.8,112.2-318.7,175.5-496.4
		c38.1,72.6,72.4,136.2,104.9,200.6c174.8,346.5,345.8,356.6,557.9,26.7c65.1-101.2,112.7-213.8,167.1-321.8
		c48-95.3,94.5-191.4,157.4-319.3c100.9,161.8-14.4,386.9,118.7,477.7c526.1,358.9,219.6,892.2,305.8,1340.8
		c32.2,167.6-48.4,241.9-225.3,229.2c-288.5-20.8-577.9-36-867-38.2c-246-1.9-379.5,90.2-329.9,380.7
		c34.9,204.1,75.3,399.5,150.2,593c64.4,166.2,57.4,260.6-193.8,225.1c-364.9-51.6-739.4,20.9-1111.9-35.2
		c-140-21.1-328.7,16.1-319.2,247.1C-643.7-7992.9-737.2-7921.1-847.4-7869.1z"/>
	<path class="st1" d="M-226.1,6355.6c-159-719.2-228-1444.6-456.9-2127c-176.1-525-291.2-1089.9-673.7-1529
		c-198.6-228-182.9-516.4-203.1-786.7c-38.7-518.7-251.4-946.8-604.1-1318.3c-79.5-83.7-160.3-177.7-156.5-349.2
		c717.8,111.4,1425.7,217,2132,332.9C155.4,634.7,494.9,717.4,838.6,775c204.9,34.4,308,114.8,245.8,338.8
		C746.5,2331.9,586,3591.1,230.5,4805.2C79.1,5322.2-73.8,5838.8-226.1,6355.6z"/>
	<path class="st1" d="M1821.7-3243.2c-182.6,715.4-201.2,1397.6-324.9,2065.5C1429.1-812.1,1343-447.9,1308.5-79.1
		c-26.4,282.5-153.5,362.3-401.1,302.3C-168.9-37.7-1267.3-164-2360.9-319.5c-71.2-10.1-145.7-19-210.6-47.1
		c-105.6-45.7-240.9,136.2-317.5-34.1c-73.2-162.6,86.4-237.1,166.2-329.5c280.5-324.4,574.6-636.9,858.7-958.3
		c143.5-162.4,281.2-288.8,520.7-160c375.4,202,693.8,15.5,1011.9-169.9c624.5-363.8,1252.3-721.7,1879.3-1081.3
		C1618.5-3140.3,1692.4-3175.7,1821.7-3243.2z"/>
	<path class="st1" d="M-2306.9-3394.6c-141.4,86.1-103.2,231-110,356.7c-5.5,103-23.3,177.4-125.6,235.5
		c-339.8,192.8-395.1,164.3-496.1-213.4c-105.4-394-211-792-367.6-1166.8c-88.7-212.3-29-296,126.1-411.7
		c437.9-326.6,847.2-685.9,1249.7-1057.1c201.7-186,543.4-221,823.2-320.4c53.4-19,85,23,110.3,67.2
		c117.5,205.7,42.4,777.7-118.1,972.1c-263.8,319.6-599.2,594.9-665.9,1041C-2119.6-3808.8-2273.1-3653.1-2306.9-3394.6z"/>
	<path class="st1" d="M5964.2-10643.7c-295.2,571.4-295.2,574,336.2,569.1c188-1.4,375.8-21.6,655.9-38.9
		c-529,395.3-991.5,740.8-1478.4,1104.7c-116.9-93.7-142.8-259.1-171.6-417.1c-30-164.4-42-332-63.3-498
		c-86.7-673.7-21.8-739.2,718.4-722.3L5964.2-10643.7z"/>
	<path class="st1" d="M2242-7483.4c-41.1,183.7,77.4,484.5-294.4,433.6c-125.6-17.2-376.2,145.8-360-160.1
		c27.6-521.4,154.1-675.8,453.2-654.1C2330.8-7843,2201.8-7628.2,2242-7483.4z"/>
	<path class="st1" d="M1389.2-8678.4c-1.7-49.5-3.4-98.9-5.1-148.4c213.6-130.3,422.4-241.8,696.9-203.4
		c199,27.8,206.8,138.1,186.4,272.5c-25.5,167.9,92.6,430-211.1,444c-133.5,6.1-353.2,128-396.8-156.8
		C1637.7-8612.6,1608.1-8777.6,1389.2-8678.4z"/>
	<path class="st1" d="M-5664.9-444.6c9.5,96.7-81.8,66.5-123.9,98.4c-339.6-29-679.1-57.9-1018.7-86.9c1.7-29.5,3.5-58.9,5.2-88.4
		C-6422.5-523.8-6041-611.9-5664.9-444.6z"/>
	<path class="st1" d="M-7008.9,275.6c91.7-206.9,271.4,26.3,383.8-76.7c146.7-31.6,293.5-63.1,440.2-94.7
		c39.8,142.1,183-43.6,241.3,95.3c-292.3,269.8-629.9,248.5-981.2,149.6c0-0.1,16.1-3.7,16.1-3.7c4.3-59.1-21.3-86.1-81.5-75.9
		L-7008.9,275.6z"/>
	<path class="st1" d="M-1023.1-4064.1c0,0,0,9.8-0.1,9.8c82.3-66.4-4.7-160,36.4-230.9c32.7-56.3,89.8-75.1,152.4-67.9
		c60.5,7,64,47.9,62.2,101.3c-6.7,198.7,129.6,380.6,71.2,588.5c-110.2,28.6-63.6-188.6-194.5-125.5c0-0.1,14.5-8.8,14.5-8.8
		C-844.7-3931.1-862-4036-1023.1-4064.1z"/>
	<path class="st1" d="M5961.3-10646.3c9.6-12.1,19.3-24.2,28.9-36.2c1,7.9,5.7,19.3,2.2,23c-7.1,7.5-18.6,10.7-28.2,15.7
		C5964.2-10643.7,5961.3-10646.3,5961.3-10646.3z"/>
	<path class="st0" d="M-7156.5-4725.9c41.4,31.2,104.4,65.9,37.5,118c-39.4,30.7-70.1-22.3-91.3-58.1
		C-7192.4-4685.9-7174.4-4705.9-7156.5-4725.9z"/>
	<path class="st0" d="M-7210.3-4666c-45.6-24.7-77.2-57.6-29.3-102.9c7.5-7.1,54.4,27.6,83.1,43
		C-7174.4-4705.9-7192.4-4685.9-7210.3-4666z"/>
	<path class="st0" d="M-3044.6,1126.1c0.4,57.3-41.6,73.7-85.4,88.4c-236.6-103.9-473.1-207.7-709.7-311.6
		c25.6-29.6,51.1-59.2,76.7-88.7C-3523.5,918.2-3284,1022.2-3044.6,1126.1z"/>
	<path class="st0" d="M-1023.1-4064.1c161.1,28.1,178.4,133,142.1,266.4C-1191.5-3746.2-978.9-3973.7-1023.1-4064.1z"/>
</g>
</svg>
