<?xml version="1.0" encoding="utf-8"?>
<!-- Generator: Adobe Illustrator 20.1.0, SVG Export Plug-In . SVG Version: 6.00 Build 0)  -->
<svg version="1.1" id="Слой_1" xmlns="http://www.w3.org/2000/svg" xmlns:xlink="http://www.w3.org/1999/xlink" x="0px" y="0px"
	 viewBox="0 0 256 256" style="enable-background:new 0 0 256 256;" xml:space="preserve">
<style type="text/css">
	.st0{fill:#0C0D0D;}
	.st1{fill:#7E7E7E;}
</style>
<g>
	<path class="st0" d="M0,142.7c0-9.6,0-19.2,0-28.8c0.9-0.3,0.9-1.1,0.9-1.8c0.6-9.7,3.1-19,6.5-28c8.8-23.7,23-43.5,43.5-58.8
		C68,12.6,87.1,4.9,108,1.1c1.3-0.2,3.1,0.6,4-1.1c10.7,0,21.3,0,32,0c3.1,1.8,6.7,1.4,10,2.1c13.1,3.1,25.5,7.7,37.2,14.5
		c16.1,9.3,29.4,21.6,40.4,36.4c6.3,8.5,11.3,17.9,15.2,27.9c3.6,9.2,5.7,18.8,7.5,28.5c0.6,3-0.1,6.3,1.7,9c0,6.2,0,12.4,0,18.6
		c-0.7,0.1-0.9,0.5-0.9,1.1c-0.4,9.2-2.5,18.1-5,27c-2.8,10-7,19.4-12.4,28.1c-11.6,18.8-26.8,34.1-46.1,45.3
		c-15.2,8.8-31.4,14.1-48.7,16.4c-1.1,0.3-2.8-1-3.3,1.1c-7.7,0-15.4,0-23,0c-0.5-2.3-2.2-0.7-3.3-1.1c-11.7-1.7-23-4.3-34.1-8.8
		c-15.1-6.1-28.3-15-40-26.1c-12.3-11.8-22.1-25.6-28.7-41.4c-4.1-9.7-7.5-19.5-8.7-30.1C1.5,146.6,1.8,144.3,0,142.7z M63.9,126.2
		c-0.2,0.7,0.1,0.8,0.7,0.7l-0.1,0c2.9,2.5,6.8,1.8,9.1-0.9c1,0.5,2,1.2,3.1,1.5c2,0.6,4.6,0.5,6,1.7c2.3,2,4.8,2.7,7.6,3.2
		c6,2.7,12.1,5.4,18.1,8.1c-1.1-2.2-3.3-2.3-4.8-3.5c0-0.6,0.4-0.8,0.9-1c1.1,0.5,2.1,1.3,3.6,1.3c-0.8-1.2-1.8-1.8-2.8-2.3
		c-5.5-3-11.2-5.5-17-7.7c-4.8-1.8-9.4-4.3-14.7-4.7c-2.1-0.1-2.3,0.7-2.5,2.1c-1.3,0.3-2.6,0.6-3.9,0.8c-0.9-0.6-1.9-1.1-1.8-2.3
		c0.1-1.1-0.6-1.1-1.3-1.2c-1,0-1.6,0.4-1.7,1.4c-0.1,1.2,0.1,2.3,1.4,2.8L63.9,126.2z M116.4,88.1c-1.9-0.2-4.2-1.1-4.3,2.2
		c-1.3,0.5-1.9-1.3-3.2-0.8c0.6-3.9,3.5-6.4,5.9-9.2c1.4-1.7,2.1-6.7,1-8.6c-0.2-0.4-0.5-0.8-1-0.6c-2.5,0.9-5.5,1.2-7.2,2.8
		c-3.5,3.3-7.1,6.4-11,9.3c-1.4,1-1.9,1.8-1.1,3.6c1.4,3.3,2.3,6.8,3.2,10.3c0.9,3.3,1.4,3.6,4.4,1.9c0.9-0.5,1.1-1.2,1.1-2.1
		c0.1-1.1-0.3-2.4,1-3.1c0.7,1.2,0.3,2.5,0.4,3.7c0,2-0.2,4,1.1,5.8c0.6,0.8,0.9,1.7,2.2,1.1c1.3-0.5,2-1.3,1.7-2.6
		c-0.2-1-0.7-2-1.1-3c-0.9-1.9-0.6-3.6,0.2-6.4c-0.4,6.3,2.2,3.6,4.3,2.6c0.6-0.3,1.4-0.4,2.1-0.5c0.8-0.1,2.1,0.2,2-0.9
		c-0.1-1.2-1.4-0.9-2.3-0.8c-2,0.1-3.8-0.1-3.7-2.8c0.8,0,1.2,0.4,1.9,0.8c1.2,0.8,2.8,1.7,3.7-0.6c1.2-0.6,0.7,1.4,1.7,1.1
		c0.5-1.8-0.7-3.4-0.6-5.2c0-0.5,0-0.8-0.5-0.9c-0.6-0.1-1.1,0.1-1.3,0.6C116.4,86.7,117.1,87.5,116.4,88.1z M137.6,47.4
		c1.9-0.9,2.2,0.6,2.4,1.8c0.4,2.5,2.3,1.4,3.5,1.4c2.7-0.1,1.6-2.4,1.9-3.9c0.2-1.2,0.1-2.2-1.6-2.4c-2.4-0.3-4.3,0.6-6.1,1.8
		c0-0.5-0.1-1.1-0.1-1.6c-0.2-1.2-0.6-2.8-1.8-2.6c-1.6,0.4-0.5,2-0.3,2.9c1.1,4.2,1.8,8.4,1.2,12.8c-0.4,2.5-1.9,4.6-2.1,7.2
		C138.7,63,140.1,54.3,137.6,47.4z M133.1,55.7c-1.8,0.2-1.7-1.6-2.6-2.5c-0.8-0.8-1.5-1.4-2.7-1.3c-1.7,0-0.7,1.7-1.5,2.3
		c-1.2-3.6-3.8-1.9-6-1.7c-0.1-2,1.6-2.4,2.8-2.2c3.3,0.5,6.6-0.1,9.8,0.3c2.2,0.3,2.3-0.5,1.7-2c-0.7-1.7-1-3.4-1.3-5.2
		c-0.4-2.6,0.7-3.4,2.9-3.4c2.5,0,5.1,0.2,7.6,0.3c1.6,0.1,2.3-0.5,2-2c-0.8-4,1.9-8.6-2.7-11.8c-1.2-0.8-0.2-2.8-1-4.2
		c-0.6,1.1-1,2-1.4,2.8c-0.5,1-0.9,1.9-1.5,2.8c-1.9,2.9-3.4,2.8-4.9-0.2c-0.3-0.6-0.6-1.1-0.9-1.8c-0.6,1.6-1.1,3-1.5,4.4
		c-0.4,1.3-1,2.8-2.3,2.8c-1.4,0-2.3-1.4-2.5-2.9c-0.1-0.4-0.2-0.8-0.8-0.8c-0.8,1.5-1.6,3-2.4,4.4c-0.4,0.7-0.9,1.6-1.8,1.7
		c-1.2,0-1.2-1.3-1.8-2c-1-1.2,0-3.1-1.1-4.4c-1.5,1.4-2.5,3.1-4.1,3.8c-2.6,1.1-1.4-3.1-3.6-3c-1.2,1.6-0.9,3.8-1.8,5.6
		c-1.4,2.7-2.3,2.7-4.3,0.4c-1.2-1.3-1-3.1-2.1-4.6c-0.5,0.7-0.9,1.2-1.2,1.7c-1.7,2.7-2.2,2.6-4,0c-0.9-1.3-0.5-3.1-1.7-4.3
		c-1.9,1.3-2.7,3.6-5.1,4.5c0.5-2.7-2.3-4.3-1.5-7c-1.9,1.6-3.4,3.4-5.3,4.7c-1,0.7-1.9,1.1-2.6-0.2c-0.9-1.8-1.5-1.6-2.5,0
		c-1.2,1.9-2.6,3.1-3.8-0.2c-0.6-1.5-1.5-2-2.5-0.2c-0.8,1.4-1.8,2.6-2.8,3.9c-3,0.5-2.4-2.9-4.2-3.9c-1.1,2.1-2.2,4.2-3.4,6.3
		c-0.6,1.2-1,3.1-2.5,3c-1.5-0.1-1.9-2.1-2.3-3.5c0-0.1-0.3-0.2-0.5-0.3c-0.6,1.3-1.6,2.1-1.7,3.8c-0.1,1.9-1.1,4.6-2.8,4.9
		c-1.2,0.2-1.5-2.8-1.9-4.5c-0.1-0.3-0.2-0.6-0.3-0.9c-0.3-1.7-1.1-1.7-2.4-0.8C43,42.8,38.7,48,34.5,53.2
		c-9,11.2-15.8,23.7-20.2,37.4c-1.5,4.5-2.9,9.1-3.9,13.7c-0.7,3.5-0.6,7.2-1.1,10.7c-1.6,12.8-1,25.4,2,37.9
		c1.9,7.8,3.6,15.6,7.4,22.8c3.1,5.9,5.4,12.2,9.6,17.6c5.1,6.7,9.4,13.9,16.2,19.4c4.8,3.9,8.9,8.5,14.2,12.1
		c9,6,18.5,10.9,28.6,14.8c3.2,1.2,6.5,2.1,9.7,3c0.9,0.2,1.8,0.3,2.4-0.9c0.7-1.2,0-1.7-0.8-2.3c-2.9-2.3-4.7-5.5-5.8-9
		c-0.3-1-0.8-2.4-2-2.5c-1.3-0.1-1.4,1.4-1.9,2.3c-2,3.5-5.8,4.7-9.3,2.8c-1-0.5-1.7-1.4-1.4-2.6c0.3-1.2,1.3-0.7,2.1-0.6
		c1.8,0.2,3.6,0.2,5.2-0.9c2.3-1.5,2.6-3.4,0.5-4.9c-0.7-0.6-1-1.4-1.2-2.2c-0.7-3.9-1.1-8-1.1-11.9c-0.2-12-1-24.1,1.4-36
		c0.3-1.3-0.3-2.5-1.2-3c-4.4-2.2-7.5-5.9-10.8-9.3c-8.9-9.4-14.7-20.3-14.4-33.7c0-1,0-1.9-0.7-2.7c-2-1.8-2-4.3-2.2-6.7
		c-0.1-1.1-0.3-2.1-0.7-3.1c-4.4-9.4-8-19-10.2-29.1c-1-4.5-1.2-9-0.4-13.3c0.8-4.9,2.8-9.6,8.1-11.8c2.8-1.2,5-3.5,8-4.7
		c1.7-0.7,2.9-2.6,2.6-5.2C62,41.7,63.4,38.6,70.8,35c1.4-1.1,2.8,0,4.3-0.1c8.6-0.7,11.2,1.1,13.7,9.4c-1-0.3-2-0.6-3-0.7
		c-0.9-0.1-1.9,0-3.1,0c2.2,2.1,4.9,2.3,6.1,0.7c2.5-0.3,3.7,2,5.6,3c2.3,1.2,2.2,2.8,0,4.4c-1.6,1.1-3.6,1.1-5.2,1.7
		c-0.5,1.3,1.6,3.1-0.1,3.5c-3.2,0.8-2.5,3.2-2.6,5c-0.1,3-1.6,3.8-4.1,4.2c-1.3,0.2-2.8-0.4-4.5,0.7c2.7,0.5,4.8,0.7,6.7,2.2
		c1.2,0.9,2.9,0.6,4.5,0c4-1.5,8.2-2.9,12.3-4.2c5.6-1.8,10.9-4,14.1-9.4c0.4-0.6,1-2.3,2.4-0.8c-1.2,1.4-0.5,1.4,0.8,1.3
		c4.9-0.3,4.9-0.2,5.4,4.6c0.1,0.7,0.5,0.9,1,1c1.3,0.3,1.9-0.6,2.7-1.4c0.3-0.4,0.5-0.9-0.4-1.1c-0.7-0.1-1.8-0.6-0.6-1.1
		c0.8-0.3,1.1-2.7,2.5-0.9c1,1.4,2.4,2.5,4,1.7C135.1,57.8,131.9,56.8,133.1,55.7c0.6-0.5,1.2,1.2,1.7,0.1c0.5-1.3,0-2.5-1-3.4
		c-0.6-0.5-1.3-1-2-0.6c-1.1,0.6,0.1,1.2,0.3,1.8C132.3,54.3,133.4,54.7,133.1,55.7z M74.4,120.8c2.2,0.1,4.5,0,6.7,0.3
		c16.1,2.1,32.3,4.2,48.4,6.3l-0.2,0l0.2,0.1c-0.4,1-1.4,1.1-1.7,0.5c-1.1-2.7-3.7-2.1-5.6-2.4c-8.6-1.5-17.2-2.8-25.9-3.9
		c-6.9-0.8-13.8-2-20.8-1.7c-3.3-1.5-6.7-0.7-10-0.7c0,0.3,0,0.5,0,0.8C68.5,120.2,71.4,120.5,74.4,120.8z M177.9,30.1
		c-6.5-0.1-7.1,0.4-6.3,6.4c0.2,1.5,0.3,2.9,0.6,4.4c0.3,1.4,0.5,2.8,1.5,3.7c4.3-3.2,8.4-6.2,13-9.7c-2.5,0.2-4.1,0.3-5.8,0.3
		C175.3,35.1,175.3,35.1,177.9,30.1c0.1,0,0.2-0.1,0.3-0.1c0,0,0-0.1,0-0.2C178.1,29.8,178,30,177.9,30.1z M80.9,89.4
		c0,0-0.1,0-0.1,0c0,0,0.1,0.1,0.1,0.1c-4.5-5-5-10.2-1.1-15.8c0.5-0.8,2.1-1.4,1.2-2.6c-0.7-0.9-2.1-0.9-3.3-0.8
		c-3.6,0.2-7.7,4.7-8.1,9.4c-0.3,3.2-0.9,6.7,2.8,8.8c0.6-0.9-0.8-1.4-0.5-2.1c1.6-0.5,1.7,1.8,3.3,1.5c-0.4-1.6-2-3.1-0.4-4.9
		C76.8,85.3,77,89.2,80.9,89.4z M214.5,75.8c-3.5-1.4-6.6,2.7-10,0.3c-0.7-0.5-1.2,0.6-1.8,1.1c-4.8,3.8-9.2,8.2-14.3,11.8
		c-0.8,0.5-1.3,1.3-1.5,2.4c-2.5,14.1-5.1,28.1-7.8,42.1c-0.3,1.7-0.6,3.2,1.3,4.4c1.6,1.1,1,3.8-1,4.2c-1.9,0.4-2.1,1.4-2.3,2.8
		c-1.4,7.9-2.8,15.9-4.2,23.8c-1.6,9.2-3.8,18.2-5.2,27.4c-2.1,13.1-4.4,26.1-6.7,39.2c-0.4,2.2-2.2,4.9-0.5,6.3
		c1.7,1.5,4.2-0.6,6.2-1.3c11.2-3.9,21.7-9.1,31.1-16.2c8.1-6.1,16.3-12.3,22.1-20.9c2.5-3.6,5.5-6.8,7.8-10.6
		c3.4-5.7,6.6-11.4,9.2-17.4c4.6-10.5,7.8-21.5,9-33.1c0.9-8.7,1.4-17.4,0.4-26.1c-0.3-2.8,0.2-6-1.2-8.4c-1.6-2.8-5.4-1.5-8-2.8
		c-0.9-0.5-2.5,0-2.7-1.3c-0.3-1.3,0.9-2,1.9-2.7c0.2-0.1,0.2-0.5,0.4-0.9c-1.7-0.2-3.3-0.7-4.7-0.4c-1.8,0.3-3.4,0-4.3-1.3
		c-0.9-1.3,0.5-2.5,1.4-3.5c0.1-0.2,0.1-0.5,0.1-0.8c-6.5,1.1-7.4,1.2-8,0.3c-1.3-2,0.9-3.2,1.3-5.1c-2.1,0-4.1,0-6.1,0
		c-2,0-2.1-0.9-1.4-2.4c0.8-1.8,3-2.4,3.7-4.3C212.6,80.1,212.6,80.1,214.5,75.8z M79.9,159.4c2.2,2.5,3.4,5.7,6.6,6.6
		c3.5,0.9,3.5,3,2.8,5.8c-1.1,3.9,0,7.9-1.2,12.3c5.6-3.7,10.9-5.4,16.9-3.6c0.9,0.3,1.8,0.1,1.8-1.1c-0.2-5.3,0.7-10.7-0.6-15.9
		c-2-8.5-6.6-15.8-11-23.2c-0.6-1-1.2-1.1-2.3-0.6c-3.7,1.6-7.4,3-10.6,5.7c-4.2,3.5-4.4,4.2-1.5,8.7c1.6,2.5,3.5,4.8,5.7,7.6
		C84,160.6,82.5,159,79.9,159.4z M123.4,179.8c1.3-4.6,2.7-9.1,4-13.7c3.1-10.7,4.5-21.8,7.5-32.5c0.5-2-0.4-2.7-2.2-3
		c-3-0.5-6-1.2-9-1.7c-6.2-1-12.5-1.9-18.8-2.9c0,1.5,0.7,2.3,1.4,3.1c3.1,3.3,5,7,5.3,11.6c0.2,2.4,0,4.9,1.8,6.9
		c3.4,3.9,4.4,8.8,5.9,13.5C121.4,167,122,173.4,123.4,179.8z M142.1,140.7c-4.2,1.9-5,5.1-5.9,8.9c-3.8,16.1-7.6,32.2-12.5,48
		c-4.3,13.9-9.1,27.6-13.6,41.4c-2.1,6.4-1.4,7.3,5.6,7.2c1.5,0,2.2-0.4,2.5-1.8c1.8-9.5,5.1-18.6,7.3-28c4.4-18,9.5-35.9,13-54.1
		C139.9,155.4,140.8,148.2,142.1,140.7z M141.4,95.2c-1.1,0.6-1.8,0.9-2.4,1.3c-5.5,3.2-11,6.3-16.5,9.5c-2.8,1.6-5.6,3.3-8.9,1.5
		c-2.1-1.1-3.3,0-4.6,1.4c-2.5,2.8-5.1,5.6-7.6,8.4c-0.7,0.8-2.1,1.5-1.5,2.9c0.7,1.5,1.9-0.1,2.8,0.3c0.6,0.2,1.2,0.3,1.9,0.4
		c9.6,1.4,19.3,2.5,28.8,4.8c2.2,0.5,3.3-0.2,3.5-2.7c0.3-3.2,1.1-6.5,1.7-9.7C139.7,107.6,139.8,101.5,141.4,95.2z M144.8,78.6
		c3.7-0.7,5.8-3.4,8.4-5.1c12.7-8.3,25.4-16.6,38-24.9c2.6-1.7,4.3-4,5-7c0.4-1.8,0.1-3.4-1.3-4.6c-1.4-1.3-2.9-1.3-4.7-0.6
		c-2.5,0.9-4.3,2.8-6.3,4.2C170.9,49.8,158,59,145.1,68.2c-1.3,0.9-1.9,1.9-1.7,3.4C143.8,74,144.3,76.3,144.8,78.6z M72.1,70.1
		c-2.1-2.8-5.1-4.5-7.7-6.6c-2.5-2.1-5.3-3-8.3-1.4c-3.5,1.8-5.6,4.5-5.8,8.7c-0.3,6.7,3.4,10.9,8.4,14.3c3.6,2.4,5.8,2.7,7.9,2.2
		c-1.1-1.5-3.6-1.9-3.9-4.2c1.3-0.5,2,1.2,3.1,0.5c-0.6-1.7-3.1-2-3.1-4.1c4.2,1.1,4.3,1.1,5.3-3.2C68.8,73.8,70.2,71.8,72.1,70.1z
		 M105.4,198.9c-3.7,3-7.2,6-10.8,8.9c-0.6,0.5-1.4,1.5-2.1,0.8c-0.7-0.7-0.4-1.7,0.1-2.6c0.7-1.1,1.5-2,2.5-2.8
		c3.2-2.7,6.3-5.6,9.6-8.4c1.7-1.5,1.1-3.4,1-5.1c-0.1-1.8-1.9-1-2.8-1.2c-5.1-1-9.6,0.8-13.9,3.4c-1.1,0.7-1.3,1.6-1.2,2.7
		c0.2,3.6,0,7.3,0.6,10.8c0.6,3.6,0.2,7.6,2.4,11c1.6-1.3,3-2.7,4.6-3.9c1.6-1.2,3.3-2.3,5.1-3.2
		C105.9,206.4,106.4,205.5,105.4,198.9z M82.8,86.6c2.1,1.5,5.4,0.7,7.8-1.8c3.6-3.7,7.8-6.7,11.9-9.8c2.5-1.9,5.1-4,4.2-8
		c-0.3-1.4-0.4-1.8-1.9-1.3c-6.5,2.2-13.1,4.2-19.5,6.6c-3.7,1.4-6,4.3-6,8.5c0,3.1,1,3.7,3.9,2.8c1.8-0.6,3.5-1.9,6.3-1.3
		C87.1,84,85.3,85.6,82.8,86.6z M139,83.7c0.2-4.5-1.5-8.4-1.9-12.5c-0.2-2.2-1.1-2.1-2.6-1c-2.4,1.6-4.8,3.1-7.3,4.4
		c-1.2,0.7-1.5,1.4-1.3,2.8c0.7,3.4,1.2,6.8,1.6,10.3c0.6,5.3,1.2,5.9,5.7,3.3C136.1,89.3,140,88.1,139,83.7z M116.5,67.1
		c0.4,4.6,2,10.4,3.1,16.3c0.7,3.8,1.5,7.7,3.1,11.3c0.4,1,1.1,2,2.4,1.4c1.1-0.5,1.2-1.5,0.9-2.7c-2.2-7.2-4-14.5-5.2-21.9
		c-0.6-3.9-2-8.3,2.4-11.3c0.7-0.4,0.6-1.1,0.3-1.7c-0.4-0.7-0.9-0.9-1.8-0.8C117.8,58.2,116.5,60.1,116.5,67.1z M108.1,215
		c-3,1.9-6.7,3.3-9.2,1.4c-2.6-1.9-2.8,0-3.6,1.1c-0.8,1.1-1.3,2.4-2,3.7c3.6,1.2,7.3,1.3,10.9,2.1c1.6,0.4,2.1-0.3,2.6-1.5
		c1.5-3.9,4.2-7.1,6.6-10.4c0.9-1.2,2.5-2.1,2.8-4.5c-4.9,1.7-9,4.6-13.7,5.6C103.7,215.1,106.1,214.3,108.1,215z M83.9,55.2
		c0.1-1.5,2.5-0.8,1.9-2.6c-0.2-0.7-0.7-1-1.5-0.9c-2.6,0.5-4.3-0.8-5.9-2.8c-0.4,1.4-0.6,2.5-1.1,3.5c-0.5,1.1-1.1,2-1.8,3
		c-1.8,3-1.4,5,1.8,6.4c1.5,0.7,2.9,1.5,4.7,1.6c3.5,0.3,3.4,0.4,2.5-3.1c-0.2-0.6-1.8-1.6-0.1-2.6C87.4,56.3,84.9,55.9,83.9,55.2z
		 M92.4,95c-0.4,5.8-0.9,11.5-2.3,17.1c-1.1,4.5-0.9,4.5,3.7,5.1c1,0.1,1.7,0.1,1.7-1.2C95.6,108.9,95,101.9,92.4,95z M70,46.3
		c1.1,0.4,0.8,1.3,0.9,2c0.3,2.1,0.3,2.1,2.6,2c0.8-0.1,0.9,0.6,0.7,1c-0.2,0.6-0.5,1.2-0.9,1.6c-0.4,0.6-0.8,1.2-0.2,1.7
		c1,0.8,1.2-0.4,1.6-0.9c1.4-1.6,1.7-3.5,1.3-5.6c-0.5-2.6-1.6-4.6-4.6-4.8c-2.8-0.2-3.8,1.6-4.3,3.8c-1,3.5-0.1,6,2.5,7.3
		C68.7,51.6,68.5,48.9,70,46.3z M113.5,103.4c0.8,1.1,1.4,1.2,2.5,0.6c7.9-3.9,15.8-7.7,23.7-11.6c2.3-1.1,2.6-3,2-5.3
		c-0.9,2.9-3.4,3.9-5.7,5.1C128.6,95.9,121.2,99.6,113.5,103.4z M68.3,149c4.5-6.6,9.8-12.3,18.2-15.5c-5.6-0.7-15.1,4.9-17.5,9.7
		C68.2,144.9,66.2,146.6,68.3,149z M91.7,135.9c-2.3-0.8-2.4-0.9-3.2-0.5c-7.1,3.3-13.3,7.8-18.2,14c-1,1.2-0.5,2.3,0.5,3
		c1.5,1,1.4-0.7,1.7-1.3c3.2-5.8,7.9-9.9,13.9-12.5C88.1,137.8,90,137.4,91.7,135.9z M147.8,63c1.3-0.2,2.1-0.3,2.4-1.3
		c1.6-5.8,2.4-11.6,0.8-17.5c-0.2-0.8-0.5-1.9-1.4-1.9c-3.8,0.2-7.5-1.3-11.3-0.1c2.3,0.5,4.7,0.7,7,0.9c4.1,0.3,4.7,1.1,5,5.3
		C150.6,53.4,149.5,58,147.8,63z M77.1,35.8c-2.7,0-5.1,2-4.7,4.4c0.4,2.4,2.7,3,4.8,2.7c2-0.2,4.8,0.5,5.3-2.6
		C82.9,38.1,79.9,35.8,77.1,35.8z M72,135.2c-1.8-0.2-3.2,2.1-3.5,0.7c-0.8-3.6-5.4-2.1-6.1-5.4c0.5,4.7,1.2,9.1,3.5,13.5
		C68.1,140.9,69.9,138.2,72,135.2z M96.3,232.9c2.1-2.8,5.3-3.9,8.2-6.3c-4.2-0.7-7.9-1.3-11.7-2C93.7,227.7,94.2,230.4,96.3,232.9z
		 M72.1,65.6c0.6-0.9,1.3-1.8,1.2-2.8c-0.3-4.5-5.2-5.1-7.2-8.5c-0.8,1.3-2.5,2-0.8,3.8C67.7,60.4,69.8,63,72.1,65.6z M145.1,57.9
		c-0.4-1.3,0.8-3.2-1.8-3.4c-2.6-0.2-3.7,1.2-4,5.8c-0.1,2.7,2.1,1.3,3.2,1.4C145.8,62.2,144.8,59.5,145.1,57.9z M88.2,189.5
		c4.7-4.7,10.4-5,16.3-4.4c0.5,0.1,1.3,0.9,1.5-0.1c0.3-0.9-0.7-1.3-1.4-1.3c-5.5-0.4-11-0.6-15.7,3.1
		C88.2,187.4,87.5,187.9,88.2,189.5z M115.4,96c-1.2-0.4-2,0.7-2.8,1.6c-0.6,0.6-1.3,1.3-0.7,2.2c0.8,1.2,1.4-0.1,2.1-0.3
		c0.8-0.3,1.6-0.6,2.4-0.8c0.9-0.2,2.2-0.1,2-1.5C118.2,95.7,116.8,96.1,115.4,96z M103,230.2c-2.3,1.1-3.6,2.5-4.8,3.9
		c-1.1,1.2,0.1,1.9,0.9,2.5c1,0.7,1.5-0.1,1.8-0.9C101.5,234,102.1,232.4,103,230.2z M85.6,49.6c-0.8,0.8-1.4,1.7-2.4,0.8
		c-0.6-0.5-0.9-1.1,0-1.8c0.8-0.6,0-0.9-0.4-1c-0.7-0.2-1.5-0.2-2.1-0.1c-0.7,0.2-0.4,0.8-0.2,1.3C81.6,51.5,83.6,50.2,85.6,49.6z
		 M140.1,129.4c-3-1.2-6-2.1-9.3-1.8C133.7,129.2,137,129.1,140.1,129.4z M69.7,41.5c0.9-1.8,1.8-3.7,2.7-5.5
		C70.3,37.2,69.2,38.9,69.7,41.5z M143.5,129.7c-0.4,0.1-0.6,0.3-0.9,0.2c-0.1,0-0.6,0.3-0.4-0.2c0.1-0.2,0.5-0.3,0.8-0.3
		C143.1,129.4,143.2,129.5,143.5,129.7z"/>
	<path class="st1" d="M214.5,75.8c-1.9,4.3-1.9,4.3,4.2,6.4c-0.7,1.9-2.9,2.5-3.7,4.3c-0.7,1.5-0.7,2.5,1.4,2.4c2,0,4,0,6.1,0
		c-0.3,1.9-2.6,3.1-1.3,5.1c0.6,0.9,1.5,0.8,8-0.3c0,0.3,0,0.7-0.1,0.8c-0.8,1.1-2.3,2.2-1.4,3.5c0.9,1.3,2.5,1.6,4.3,1.3
		c1.5-0.3,3.1,0.3,4.7,0.4c-0.2,0.4-0.2,0.8-0.4,0.9c-1,0.7-2.2,1.4-1.9,2.7c0.3,1.2,1.8,0.8,2.7,1.3c2.6,1.3,6.4-0.1,8,2.8
		c1.4,2.4,0.9,5.6,1.2,8.4c1,8.7,0.5,17.4-0.4,26.1c-1.2,11.5-4.3,22.5-9,33.1c-2.6,6-5.9,11.8-9.2,17.4c-2.3,3.8-5.3,7-7.8,10.6
		c-5.9,8.6-14.1,14.8-22.1,20.9c-9.4,7.1-19.9,12.3-31.1,16.2c-2.1,0.7-4.5,2.9-6.2,1.3c-1.7-1.5,0.1-4.2,0.5-6.3
		c2.2-13.1,4.6-26.1,6.7-39.2c1.5-9.2,3.7-18.2,5.2-27.4c1.4-7.9,2.8-15.9,4.2-23.8c0.2-1.4,0.4-2.4,2.3-2.8c2-0.4,2.6-3.1,1-4.2
		c-1.9-1.2-1.7-2.7-1.3-4.4c2.6-14,5.2-28.1,7.8-42.1c0.2-1.1,0.7-1.8,1.5-2.4c5.1-3.5,9.4-8,14.3-11.8c0.6-0.4,1.1-1.6,1.8-1.1
		C207.9,78.5,210.9,74.4,214.5,75.8z"/>
	<path class="st1" d="M70.8,35c-7.4,3.6-8.9,6.7-7.7,16.4c0.3,2.6-0.9,4.6-2.6,5.2c-3,1.2-5.2,3.4-8,4.7c-5.3,2.3-7.3,6.9-8.1,11.8
		c-0.7,4.3-0.5,8.8,0.4,13.3c2.2,10.2,5.8,19.7,10.2,29.1c0.5,1,0.6,2,0.7,3.1c0.2,2.4,0.3,4.9,2.2,6.7c0.8,0.7,0.8,1.7,0.7,2.7
		c-0.4,13.4,5.4,24.3,14.4,33.7c3.3,3.4,6.4,7.1,10.8,9.3c0.9,0.5,1.5,1.6,1.2,3c-2.4,11.9-1.5,24-1.4,36c0.1,3.9,0.4,7.9,1.1,11.9
		c0.1,0.8,0.4,1.6,1.2,2.2c2,1.6,1.8,3.4-0.5,4.9c-1.6,1.1-3.4,1.1-5.2,0.9c-0.8-0.1-1.8-0.6-2.1,0.6c-0.3,1.2,0.4,2,1.4,2.6
		c3.6,1.9,7.3,0.8,9.3-2.8c0.5-0.9,0.6-2.4,1.9-2.3c1.2,0.1,1.7,1.5,2,2.5c1.1,3.5,2.8,6.6,5.8,9c0.8,0.6,1.4,1.1,0.8,2.3
		c-0.6,1.1-1.5,1.1-2.4,0.9c-3.3-0.9-6.6-1.7-9.7-3c-10-3.9-19.6-8.8-28.6-14.8c-5.3-3.5-9.4-8.2-14.2-12.1
		c-6.7-5.4-11-12.7-16.2-19.4c-4.1-5.4-6.5-11.7-9.6-17.6c-3.8-7.2-5.6-15-7.4-22.8c-3-12.5-3.6-25.1-2-37.9
		c0.4-3.6,0.3-7.2,1.1-10.7c1-4.6,2.4-9.2,3.9-13.7C18.7,77,25.5,64.4,34.5,53.2C38.7,48,43,42.8,48.4,38.7c1.3-1,2-0.9,2.4,0.8
		c0.1,0.3,0.2,0.6,0.3,0.9c0.4,1.7,0.8,4.7,1.9,4.5c1.7-0.3,2.7-3,2.8-4.9c0.1-1.7,1.1-2.6,1.7-3.8c0.2,0.1,0.5,0.2,0.5,0.3
		c0.4,1.4,0.8,3.4,2.3,3.5c1.4,0.1,1.8-1.8,2.5-3c1.2-2.1,2.3-4.2,3.4-6.3c1.8,1,1.2,4.3,4.2,3.9C70.5,34.6,70.6,34.8,70.8,35z"/>
	<path class="st1" d="M117.9,54.5c-1.4-1.4-2,0.2-2.4,0.8c-3.2,5.4-8.5,7.6-14.1,9.4c-4.1,1.3-8.3,2.6-12.3,4.2
		c-1.6,0.6-3.4,1-4.5,0c-1.9-1.5-4-1.7-6.7-2.2c1.7-1.1,3.2-0.6,4.5-0.7c2.5-0.4,4-1.2,4.1-4.2c0.1-1.8-0.6-4.2,2.6-5
		c1.7-0.4-0.4-2.2,0.1-3.5c1.7-0.6,3.6-0.6,5.2-1.7c2.2-1.5,2.3-3.2,0-4.4c-1.9-1-3.1-3.3-5.6-3l0,0c-2.5-8.3-5.1-10.1-13.7-9.4
		c-1.4,0.1-2.9-1-4.3,0.1c-0.2-0.2-0.4-0.4-0.6-0.6c0.9-1.3,2-2.5,2.8-3.9c1.1-1.8,2-1.3,2.5,0.2c1.2,3.2,2.6,2,3.8,0.2
		c1-1.6,1.6-1.8,2.5,0c0.7,1.3,1.6,1,2.6,0.2c1.9-1.3,3.4-3.1,5.3-4.7c-0.8,2.7,2.1,4.2,1.5,7c2.4-0.9,3.2-3.2,5.1-4.5
		c1.2,1.2,0.8,2.9,1.7,4.3c1.9,2.6,2.3,2.7,4,0c0.3-0.5,0.7-1,1.2-1.7c1.1,1.5,0.9,3.3,2.1,4.6c2,2.3,2.9,2.3,4.3-0.4
		c0.9-1.8,0.7-4,1.8-5.6c2.2-0.1,1,4.1,3.6,3c1.5-0.7,2.6-2.4,4.1-3.8c1.1,1.3,0,3.2,1.1,4.4c0.6,0.7,0.7,2,1.8,2
		c0.9,0,1.4-0.9,1.8-1.7c0.8-1.5,1.6-3,2.4-4.4c0.6,0,0.7,0.4,0.8,0.8c0.2,1.5,1.1,2.9,2.5,2.9c1.3,0,1.8-1.6,2.3-2.8
		c0.5-1.4,1-2.8,1.5-4.4c0.3,0.6,0.6,1.2,0.9,1.8c1.5,3.1,3,3.1,4.9,0.2c0.6-0.9,1-1.9,1.5-2.8c0.4-0.8,0.8-1.7,1.4-2.8
		c0.9,1.4-0.1,3.4,1,4.2c4.6,3.2,1.9,7.9,2.7,11.8c0.3,1.5-0.4,2.1-2,2c-2.5-0.2-5.1-0.3-7.6-0.3c-2.2,0-3.3,0.8-2.9,3.4
		c0.3,1.8,0.7,3.5,1.3,5.2c0.6,1.5,0.5,2.3-1.7,2c-3.2-0.5-6.5,0.2-9.8-0.3c-1.2-0.2-2.9,0.1-2.8,2.2
		C119.7,53.4,118.9,54.1,117.9,54.5z"/>
	<path class="st1" d="M123.4,179.8c-1.4-6.3-2-12.7-4-18.7c-1.6-4.6-2.6-9.6-5.9-13.5c-1.7-2-1.6-4.5-1.8-6.9
		c-0.3-4.6-2.2-8.3-5.3-11.6c-0.7-0.7-1.4-1.6-1.4-3.1c6.3,1,12.6,1.9,18.8,2.9c3,0.5,6,1.2,9,1.7c1.8,0.3,2.7,1,2.2,3
		c-3,10.7-4.4,21.8-7.5,32.5C126.1,170.7,124.8,175.2,123.4,179.8z"/>
	<path class="st1" d="M141.4,95.2c-1.6,6.3-1.8,12.3-2.9,18.2c-0.6,3.2-1.4,6.4-1.7,9.7c-0.2,2.5-1.4,3.2-3.5,2.7
		c-9.5-2.3-19.1-3.4-28.8-4.8c-0.6-0.1-1.3-0.2-1.9-0.4c-0.9-0.4-2.1,1.2-2.8-0.3c-0.6-1.4,0.8-2.1,1.5-2.9c2.5-2.9,5.1-5.6,7.6-8.4
		c1.3-1.4,2.5-2.5,4.6-1.4c3.3,1.8,6.1,0.1,8.9-1.5c5.5-3.2,11-6.4,16.5-9.5C139.7,96.2,140.3,95.8,141.4,95.2z"/>
	<path class="st1" d="M105.1,93.9c-1.2,0.8-0.9,2-1,3.1c0,0.9-0.2,1.6-1.1,2.1c-3,1.7-3.5,1.4-4.4-1.9c-0.9-3.5-1.9-7-3.2-10.3
		c-0.8-1.9-0.3-2.6,1.1-3.6c3.9-2.9,7.5-6,11-9.3c1.8-1.6,4.8-1.9,7.2-2.8c0.5-0.2,0.7,0.2,1,0.6c1,1.8,0.4,6.8-1,8.6
		c-2.3,2.8-5.3,5.2-5.9,9.2C106.7,90.3,105.4,91.6,105.1,93.9z"/>
	<path class="st1" d="M177.9,30.1c-2.6,5-2.6,5.1,3,5c1.7,0,3.3-0.2,5.8-0.3c-4.7,3.5-8.7,6.5-13,9.7c-1-0.8-1.3-2.3-1.5-3.7
		c-0.3-1.4-0.4-2.9-0.6-4.4C170.8,30.5,171.4,29.9,177.9,30.1L177.9,30.1z"/>
	<path class="st1" d="M145.1,57.9c-0.4,1.6,0.7,4.3-2.6,3.8c-1.1-0.2-3.3,1.3-3.2-1.4c0.2-4.6,1.4-6,4-5.8
		C145.9,54.7,144.8,56.6,145.1,57.9z"/>
	<path class="st1" d="M137.6,47.4c0-0.4,0-0.9,0-1.3c1.9-1.1,3.7-2.1,6.1-1.8c1.8,0.2,1.8,1.2,1.6,2.4c-0.2,1.5,0.8,3.8-1.9,3.9
		c-1.2,0.1-3.1,1.1-3.5-1.4C139.8,48,139.6,46.5,137.6,47.4z"/>
	<path class="st1" d="M75.5,119.9c0.1,0.9-0.7,0.6-1.1,0.9c-3-0.3-6-0.5-9-0.8c0-0.3,0-0.5,0-0.8C68.9,119.2,72.2,118.4,75.5,119.9z
		"/>
	<path class="st1" d="M63.7,126.2c0.8-1.8,2.4,0.2,3.4-0.7c1.3-0.3,2.6-0.6,3.9-0.8c0.4,1.3,1.6-0.4,2.1,0.8
		c-2.6,2.4-5.5,2.2-8.6,1.3c0,0,0.1,0,0.1,0c0-0.5-0.2-0.8-0.7-0.7L63.7,126.2z"/>
	<path class="st1" d="M116.4,88C116.4,88,116.4,88.1,116.4,88c0.7-0.5,0-1.3,0.3-1.9c0.3-0.5,0.8-0.7,1.3-0.6
		c0.5,0.1,0.6,0.4,0.5,0.9c-0.1,1.7,1.1,3.4,0.6,5.2c-1,0.3-0.6-1.7-1.7-1.1c0,0,0.1-0.1,0.1-0.1C118,89.2,117.8,88.3,116.4,88z"/>
	<path class="st1" d="M177.9,30.1c0.1-0.1,0.2-0.2,0.3-0.3c0,0.1,0.1,0.2,0,0.2C178.1,30,178,30,177.9,30.1
		C177.9,30.1,177.9,30.1,177.9,30.1z"/>
	<path class="st0" d="M62.4,82.2c0.4,0.3,0.9,0.6,0.3,1c-0.3,0.3-0.6-0.2-0.8-0.5C62.1,82.5,62.2,82.4,62.4,82.2z"/>
	<path class="st0" d="M61.9,82.7c-0.4-0.2-0.7-0.5-0.3-0.9c0.1-0.1,0.5,0.2,0.7,0.4C62.2,82.4,62.1,82.5,61.9,82.7z"/>
	<path class="st0" d="M98.6,133.7c0,0.5-0.4,0.6-0.8,0.8c-2.1-0.9-4.2-1.8-6.2-2.7c0.2-0.3,0.4-0.5,0.7-0.8
		C94.4,131.9,96.5,132.8,98.6,133.7z"/>
	<path class="st0" d="M116.4,88c1.4,0.2,1.6,1.2,1.3,2.3C114.9,90.8,116.8,88.8,116.4,88z"/>
</g>
</svg>
